<?xml version="1.0" standalone="no"?><!DOCTYPE svg PUBLIC "-//W3C//DTD SVG 1.1//EN" "http://www.w3.org/Graphics/SVG/1.1/DTD/svg11.dtd"><svg t="1516773554620" class="icon" style="" viewBox="0 0 1024 1024" version="1.1" xmlns="http://www.w3.org/2000/svg" p-id="509" xmlns:xlink="http://www.w3.org/1999/xlink" width="48" height="48"><defs><style type="text/css"></style></defs><path d="M35.555556 454.698667C14.72 465.678222 0 488.028444 0 512c0 24.199111 15.068444 46.812444 36.280889 57.671111A42.901333 42.901333 0 0 1 35.555556 561.777778c0-8.206222 2.318222-15.872 6.328888-22.378667C33.848889 532.529778 28.444444 522.346667 28.444444 512c0-11.733333 6.897778-23.203556 16.711112-29.923556A42.488889 42.488889 0 0 1 35.555556 454.698667z m82.702222-14.364445l193.891555-24.241778 99.84-71.139555 29.191111-233.500445A42.609778 42.609778 0 0 0 455.111111 113.777778c5.191111 0 10.168889-0.924444 14.769778-2.631111l-31.217778 249.728-115.861333 82.552889-204.209778 25.528888c1.493333-4.337778 2.296889-9.002667 2.296889-13.845333 0-5.191111-0.924444-10.176-2.631111-14.784z m-3.171556 142.940445L312.177778 607.914667 411.989333 679.04l29.191111 233.507556A42.609778 42.609778 0 0 1 455.111111 910.222222c5.191111 0 10.168889 0.924444 14.769778 2.631111l-31.217778-249.735111L322.844444 580.579556l-202.439111-25.308445c0.32 2.126222 0.490667 4.295111 0.490667 6.506667a42.467556 42.467556 0 0 1-5.802667 21.496889zM988.444444 454.698667c20.835556 10.979556 35.555556 33.329778 35.555556 57.301333 0 24.199111-15.068444 46.812444-36.280889 57.671111 0.476444-2.56 0.725333-5.191111 0.725333-7.893333a42.467556 42.467556 0 0 0-6.328888-22.378667c8.035556-6.869333 13.44-17.052444 13.44-27.399111 0-11.733333-6.897778-23.203556-16.711112-29.923556a42.488889 42.488889 0 0 0 9.6-27.377777z m-82.702222-14.364445l-183.694222-22.968889-110.264889-74.204444-29.340444-234.716445a42.936889 42.936889 0 0 1-28.081778 4.693334l30.805333 246.392889 126.620445 85.219555 193.621333 24.206222A42.609778 42.609778 0 0 1 903.111111 455.111111c0-5.191111 0.924444-10.176 2.631111-14.784z m3.171556 142.940445l-186.837334 23.352889-110.293333 74.218666-29.340444 234.709334a42.936889 42.936889 0 0 0-28.081778-4.693334l30.805333-246.392889L711.822222 579.242667l191.786667-23.964445a42.467556 42.467556 0 0 0 5.312 28.003556z m-343.879111 412.16C553.116444 1012.501333 533.191111 1024 512 1024c-21.169778 0-41.123556-11.52-53.048889-28.615111a42.531556 42.531556 0 0 0 26.410667-12.408889C492.209778 990.542222 502.023111 995.555556 512 995.555556c8.448 0 16.760889-3.569778 23.260444-9.244445a42.488889 42.488889 0 0 0 29.774223 9.123556z m0-966.869334C553.116444 11.498667 533.191111 0 512 0c-21.169778 0-41.123556 11.52-53.048889 28.615111a42.531556 42.531556 0 0 1 26.410667 12.408889C492.209778 33.457778 502.023111 28.444444 512 28.444444c8.448 0 16.760889 3.569778 23.260444 9.244445a42.488889 42.488889 0 0 1 29.774223-9.123556zM924.451556 366.513778c-1.706667-13.909333 8.298667-25.180444 22.215111-25.180445h6.328889c13.966222 0 23.907556 11.306667 22.215111 25.180445l-18.268445 149.276444 18.133334 141.710222c1.777778 13.902222-8.170667 25.166222-22.08 25.166223h-6.328889c-13.973333 0-23.864889-11.207111-22.08-25.166223l18.133333-141.710222L924.444444 366.513778zM657.486222 42.673778C671.395556 40.967111 682.666667 50.972444 682.666667 64.888889v6.328889c0 13.966222-11.306667 23.907556-25.180445 22.215111L508.209778 75.164444l-141.710222 18.133334C352.597333 95.075556 341.333333 85.12 341.333333 71.210667v-6.328889c0-13.973333 11.207111-23.864889 25.166223-22.08l141.710222 18.133333L657.486222 42.666667z" p-id="510" fill="#515151"></path><path d="M657.486222 931.562667c13.909333-1.706667 25.180444 8.298667 25.180445 22.215111v6.328889c0 13.966222-11.306667 23.907556-25.180445 22.215111l-149.276444-18.268445-141.710222 18.133334c-13.902222 1.777778-25.166222-8.170667-25.166223-22.08v-6.328889c0-13.973333 11.207111-23.864889 25.166223-22.08l141.710222 18.133333L657.486222 931.555556zM512 611.555556c54.983111 0 99.555556-44.572444 99.555556-99.555556s-44.572444-99.555556-99.555556-99.555556-99.555556 44.572444-99.555556 99.555556 44.572444 99.555556 99.555556 99.555556z m0-28.444445c-39.274667 0-71.111111-31.836444-71.111111-71.111111s31.836444-71.111111 71.111111-71.111111 71.111111 31.836444 71.111111 71.111111-31.836444 71.111111-71.111111 71.111111zM56.896 366.513778C55.189333 352.604444 65.194667 341.333333 79.111111 341.333333h6.328889c13.966222 0 23.907556 11.306667 22.215111 25.180445L89.386667 515.790222l18.133333 141.710222C109.297778 671.402667 99.342222 682.666667 85.432889 682.666667h-6.328889C65.137778 682.666667 55.253333 671.459556 57.031111 657.500444l18.133333-141.710222L56.888889 366.513778z" p-id="511" fill="#515151"></path></svg>